<?xml version="1.0" encoding="utf-8"?><!-- Uploaded to: SVG Repo, www.svgrepo.com, Generator: SVG Repo Mixer Tools -->
<svg fill="#000000" width="800px" height="800px" viewBox="0 0 24 24" id="hula-hoop" data-name="Flat Color" xmlns="http://www.w3.org/2000/svg" class="icon flat-color"><path id="secondary" d="M12,17c-.82,0-8-.08-8-3,0-2.09,3.71-2.73,5.91-2.92A1,1,0,0,1,11,12a1,1,0,0,1-.91,1.09A10.17,10.17,0,0,0,6.18,14,13,13,0,0,0,12,15a13,13,0,0,0,5.82-1,10.17,10.17,0,0,0-3.91-.92A1,1,0,0,1,13,12a1,1,0,0,1,1.09-.91c2.2.19,5.91.83,5.91,2.92C20,16.92,12.82,17,12,17Z" style="fill: rgb(44, 169, 188);"></path><path id="primary" d="M20.58,5.19a1,1,0,0,0-1.39.23l-.75,1L14.25,7a3,3,0,1,0-4.5,0l-4.19-.5-.75-1A1,1,0,1,0,3.19,6.58l.74,1a2,2,0,0,0,1.39.83L9,8.89v5L7,20.73A1,1,0,0,0,9,21.27l2-7A.8.8,0,0,0,11,14V9h2v5a.8.8,0,0,0,0,.27l2,7A1,1,0,0,0,16,22a.84.84,0,0,0,.27,0A1,1,0,0,0,17,20.73l-2-6.87v-5l3.68-.44a2,2,0,0,0,1.39-.83l.74-1A1,1,0,0,0,20.58,5.19Z" style="fill: rgb(0, 0, 0);"></path><path id="secondary-2" data-name="secondary" d="M12,17c-.82,0-8-.08-8-3a1,1,0,0,1,2-.14c.4.41,2.51,1.14,6,1.14s5.61-.73,6-1.14A1,1,0,0,1,20,14C20,16.92,12.82,17,12,17Z" style="fill: rgb(44, 169, 188);"></path></svg>