<svg version="1.1" id="Calque_1" xmlns="http://www.w3.org/2000/svg" xmlns:xlink="http://www.w3.org/1999/xlink" x="0" y="0" viewBox="0 0 800.2 498.1" style="enable-background:new 0 0 800.2 498.1" xml:space="preserve"><style>.st1,.st2{stroke:#1a2e35;stroke-linecap:round;stroke-linejoin:round}.st1{fill:none;stroke-miterlimit:10}.st2{fill:#692bef}.st2,.st3,.st4{stroke-miterlimit:10}.st3{fill:#fff;stroke:#1a2e35;stroke-linecap:round;stroke-linejoin:round}.st4{stroke-width:2}.st4,.st5,.st8,.st9{fill:none;stroke:#1a2e35;stroke-linecap:round;stroke-linejoin:round}.st8,.st9{fill:#1a2e35;stroke-miterlimit:10}.st9{fill:none;stroke:#fff}.st10{fill:#1a2e35}.st11{fill:#692bef}.st14{fill:#fff}.st18,.st20,.st21{stroke:#1a2e35;stroke-linecap:round;stroke-linejoin:round}.st18{fill:#757575;stroke-miterlimit:10}.st20,.st21{fill:none;stroke-dasharray:.9906,2.9717}.st21{stroke-dasharray:1.0102,3.0307}.st22{opacity:.4;fill:#fff}.st23{fill:#bfbfbf;stroke:#1a2e35;stroke-linecap:round;stroke-linejoin:round;stroke-miterlimit:10}.st25{opacity:.3;clip-path:url(#XMLID_2_);fill-opacity:.7}.st26{fill:#5ae4a7;stroke:#1a2e35;stroke-linecap:round;stroke-linejoin:round;stroke-miterlimit:10}.st32{opacity:.2}.st34,.st36{fill-opacity:.7}.st34{opacity:.3;clip-path:url(#XMLID_8_)}.st36{opacity:.2}</style><path style="fill:#d8ceea" d="M0 .5h800.2v497.6H0z"/><path class="st1" d="M429.8-291.9h478.8M701-656.2v-18l-13.5-1.2c-.8-2.8-1.9-5.5-3.3-8.1l8.7-10.3-12.7-12.7-10.3 8.7c-2.5-1.4-5.2-2.5-8.1-3.3l-1.2-13.5h-18l-1.2 13.5c-2.8.8-5.5 1.9-8.1 3.3l-10.3-8.7-12.7 12.7 8.7 10.3c-1.4 2.5-2.5 5.2-3.3 8.1l-13.5 1.2v18l13.5 1.2c.8 2.8 1.9 5.5 3.3 8.1l-8.7 10.3 12.7 12.7 10.3-8.7c2.5 1.4 5.2 2.5 8.1 3.3l1.2 13.5h18l1.2-13.5c2.8-.8 5.5-1.9 8.1-3.3l10.3 8.7 12.7-12.7-8.7-10.3c1.4-2.5 2.5-5.2 3.3-8.1l13.5-1.2zm-49.3 11.9c-11.5 0-20.9-9.3-20.9-20.9 0-11.5 9.3-20.9 20.9-20.9 11.5 0 20.9 9.3 20.9 20.9 0 11.5-9.4 20.9-20.9 20.9zM894.2-480.6v-8.6l-6.5-.6c-.4-1.4-.9-2.7-1.6-3.9l4.2-5-6.1-6.1-5 4.2c-1.2-.7-2.5-1.2-3.9-1.6l-.6-6.5h-8.6l-.6 6.5c-1.4.4-2.7.9-3.9 1.6l-5-4.2-6.1 6.1 4.2 5c-.7 1.2-1.2 2.5-1.6 3.9l-6.5.6v8.6l6.5.6c.4 1.4.9 2.7 1.6 3.9l-4.2 5 6.1 6.1 5-4.2c1.2.7 2.5 1.2 3.9 1.6l.6 6.5h8.6l.6-6.5c1.4-.4 2.7-.9 3.9-1.6l5 4.2 6.1-6.1-4.2-5c.7-1.2 1.2-2.5 1.6-3.9l6.5-.6zm-23.7 5.8c-5.5 0-10-4.5-10-10s4.5-10 10-10 10 4.5 10 10-4.4 10-10 10zM887.7-637.4c.4-1.7.6-3.5.6-5.3 0-13-10.5-23.5-23.5-23.5-2.1 0-4.2.3-6.1.8-3.9-6.8-11.2-11.5-19.6-11.5-12 0-21.8 9.3-22.5 21.1-1.1-.2-2.2-.3-3.4-.3-9.5 0-17.3 7.2-18.3 16.3-5.6.1-10 4.7-10 10.3 0 5.7 4.6 10.3 10.3 10.3h86.2c5.7 0 10.3-4.6 10.3-10.3-.2-3.2-1.7-6.1-4-7.9zM840.3-627.1v23.8M840.3-641.3v9.5M840.3-650.2v5.1M835.8-606.1l4.5 5.5 4.5-5.5M625.1-358.9c.4-1.7.6-3.5.6-5.3 0-13-10.5-23.5-23.5-23.5-2.1 0-4.2.3-6.1.8-3.9-6.8-11.2-11.5-19.6-11.5-12 0-21.8 9.3-22.5 21.1-1.1-.2-2.2-.3-3.4-.3-9.5 0-17.3 7.2-18.3 16.3-5.6.1-10 4.7-10 10.3 0 5.7 4.6 10.3 10.3 10.3h86.2c5.7 0 10.3-4.6 10.3-10.3-.2-3.1-1.7-6-4-7.9zM577.7-345.1v-23.8M577.7-330.9v-9.5M577.7-322v-5.1"/><path class="st1" d="m582.2-366.1-4.5-5.5-4.5 5.5"/><path class="st2" d="M735.6-641.8H438.1V-656c0-2.3 1.9-4.2 4.2-4.2h289.1c2.3 0 4.2 1.9 4.2 4.2v14.2z"/><path class="st3" d="M451.1-638.4h300.7v211.6H451.1zM756.4-651c0 2.5-2.1 4.6-4.6 4.6s-4.6-2.1-4.6-4.6 2.1-4.6 4.6-4.6c2.6 0 4.6 2.1 4.6 4.6zM740.2-651c0 2.5-2.1 4.6-4.6 4.6s-4.6-2.1-4.6-4.6 2.1-4.6 4.6-4.6c2.6 0 4.6 2.1 4.6 4.6zM724-651c0 2.5-2.1 4.6-4.6 4.6s-4.6-2.1-4.6-4.6 2.1-4.6 4.6-4.6 4.6 2.1 4.6 4.6z"/><path class="st4" d="M742.7-629.3h-11.9M742.7-624.5h-11.9M742.7-619.6h-11.9M471.9-504.4H562M471.9-497.3H562M471.9-490.1H543"/><path class="st5" d="M663-636v.5"/><path style="fill:none;stroke:#1a2e35;stroke-linecap:round;stroke-linejoin:round;stroke-dasharray:1.0086,3.0257" d="M663-632.5v200.2"/><path class="st5" d="M663-430.8v.5M454.7-474.2h.5"/><path style="fill:none;stroke:#1a2e35;stroke-linecap:round;stroke-linejoin:round;stroke-dasharray:1.0018,3.0053" d="M458.2-474.2h287"/><path class="st5" d="M746.7-474.2h.5"/><path class="st3" d="M661.1-476.2h3.9v3.9h-3.9z"/><path class="st2" d="M572.8-719.6h-56.4c-1.4 0-2.5 1.1-2.5 2.5v26.3c0 1.4 1.1 2.5 2.5 2.5h25.3l2.9 10.4 2.9-10.4h25.3c1.4 0 2.5-1.1 2.5-2.5v-26.3c0-1.4-1.1-2.5-2.5-2.5z"/><path class="st4" d="M523.3-712.1h42.6M523.3-706.7h42.6M523.3-701.3h42.6M523.3-695.9h32.1"/><path class="st8" d="M488.4-440.8h61.4v38.5h-61.4z"/><path class="st2" d="M488.4-440.8h61.4v5.9h-61.4z"/><path class="st9" d="M494.7-430h15.7M502.5-425.6h27.2M499-421.5h8M502.5-416.7h18.3M494.7-412.3h15.7"/><path class="st1" d="M647.3-512.2h-52.8M648.3-487.8s0-24.5-27.4-24.5-27.4 24.5-27.4 24.5"/><circle class="st2" cx="648.3" cy="-487.8" r="2.3"/><path class="st2" d="M591.2-487.8c0-1.3 1-2.3 2.3-2.3s2.3 1 2.3 2.3-1 2.3-2.3 2.3-2.3-1-2.3-2.3zM646.2-514.3h4.1v4.1h-4.1zM618.8-514.3h4.1v4.1h-4.1zM591.4-514.3h4.1v4.1h-4.1zM504.7-585.8v-8.1l-6.1-.5c-.4-1.3-.9-2.5-1.5-3.6l3.9-4.7-5.7-5.7-4.7 3.9c-1.1-.6-2.4-1.1-3.6-1.5l-.5-6.1h-8.1l-.5 6.1c-1.3.4-2.5.9-3.6 1.5l-4.7-3.9-5.7 5.7 3.9 4.7c-.6 1.1-1.1 2.4-1.5 3.6l-6.1.5v8.1l6.1.5c.4 1.3.9 2.5 1.5 3.6l-3.9 4.7 5.7 5.7 4.7-3.9c1.1.6 2.4 1.1 3.6 1.5l.5 6.1h8.1l.5-6.1c1.3-.4 2.5-.9 3.6-1.5l4.7 3.9 5.7-5.7-3.9-4.7c.6-1.1 1.1-2.4 1.5-3.6l6.1-.5zm-22.2 5.3c-5.2 0-9.4-4.2-9.4-9.4s4.2-9.4 9.4-9.4 9.4 4.2 9.4 9.4-4.3 9.4-9.4 9.4zM532.2-567.7v-5.5l-4.2-.4c-.2-.9-.6-1.7-1-2.5l2.7-3.2-3.9-3.9-3.2 2.7c-.8-.4-1.6-.8-2.5-1l-.4-4.2h-5.5l-.4 4.2c-.9.2-1.7.6-2.5 1l-3.2-2.7-3.9 3.9 2.7 3.2c-.4.8-.8 1.6-1 2.5l-4.2.4v5.5l4.2.4c.2.9.6 1.7 1 2.5l-2.7 3.2 3.9 3.9 3.2-2.7c.8.4 1.6.8 2.5 1l.4 4.2h5.5l.4-4.2c.9-.2 1.7-.6 2.5-1l3.2 2.7 3.9-3.9-2.7-3.2c.4-.8.8-1.6 1-2.5l4.2-.4zM517-564c-3.6 0-6.4-2.9-6.4-6.4s2.9-6.4 6.4-6.4 6.4 2.9 6.4 6.4-2.9 6.4-6.4 6.4z"/><path class="st4" d="M674.3-460.8h44.4M674.3-453.6h44.4M674.3-446.4h25.3"/><path class="st2" d="M615.9-443.5h-23.3c-3.2 0-5.7-2.6-5.7-5.7h0c0-3.2 2.6-5.7 5.7-5.7h23.3c3.2 0 5.7 2.6 5.7 5.7h0c.1 3.2-2.5 5.7-5.7 5.7zM659.4-443.5h-23.3c-3.2 0-5.7-2.6-5.7-5.7h0c0-3.2 2.6-5.7 5.7-5.7h23.3c3.2 0 5.7 2.6 5.7 5.7h0c.1 3.2-2.5 5.7-5.7 5.7z"/><path class="st3" d="M677.6-566.3h49.5v49.5h-49.5z"/><path class="st1" d="m677.6-566.3 49.5 49.5M727.1-566.3l-49.5 49.5"/><path class="st8" d="M719.4-595.7h61.4v38.5h-61.4z"/><path class="st2" d="M719.4-595.7h61.4v5.9h-61.4z"/><path class="st9" d="M725.7-584.9h15.7M733.5-580.5h27.2M730.1-576.4h8M733.5-571.6h18.3M725.7-567.2h15.7"/><path class="st3" d="M697-622.5v11.6l-5.1 5.1h-11.6v-16.7z"/><path class="st3" d="m697-610.9-5.1 5.1v-5.1zM520-533.1v11.5l-5.1 5.1h-11.6v-16.6z"/><path class="st3" d="m520-521.6-5.1 5.1v-5.1zM457.1-462v11.6l-5.1 5.1h-11.6V-462z"/><path class="st3" d="m457.1-450.4-5.1 5.1v-5.1zM665.4-532.4c-6.1.5-13.8-6.7-13.8-6.7s-1.2 1.1-2.2-.3c-1-1.4-5.3-4.7-5.5-7.5-.2-2.8 4.8-7.4 4.8-7.4-3.9 1.1-4.3-1.2-4.3-1.2s6.5-5.4 8.8-5.5c.9-.1 4.8 2.2 8.6 5.2 3.9 3.2 11.3 14.3 11.3 14.3s25 18.2 31.3 22.8c8.3 6.1 18.2 17 18.2 17s33.2 15 42.3 23.2l-12.4 29.3s-30.2-20.2-33.2-25.4c-3-5.1-6-2-9.1-5.4-3-3.4-5.9-7.2-5.9-7.2s-7.3-3.2-14.4-10.4c-7.1-7.2-13.3-18.3-17.2-25-3.6-6.6-7.3-9.8-7.3-9.8z"/><path class="st3" d="M667.3-536.7s-9-2.2-9.8-8.1c-.3-1.9-1.9-4.2-1.9-4.2s-8.4-.4-7.9-3.8l11.2-1s6.1 2 9.8 8.2"/><path class="st1" d="M651.7-539.1s.6-.8.4-2.4c0 0 2.5-.4 2.2-2.6 0 0 3.7-.5 1.3-4.8"/><path class="st1" d="M654.3-544.2s-4.9-3.7-5.5-5.3M652.1-541.5s-5.3-3.2-5.3-5.1M653.3-558s-1.7 3-4.4 3.6"/><path class="st1" d="M652.4-556.8s1.3.7 2.5 1.6"/><path class="st10" d="M844.3-455.4s-19.8-8.6-40-13.3c-20.1-4.7-52.6-8.9-52.6-8.9s8.9 91.3 6.6 96.8c-2.4 5.5-16.5 23.9-16.5 23.9s76.6 29.9 89.9 32.4c13.3 2.5 6.4-43.8 6.4-43.8s14.1-58.9 6.2-87.1z"/><path class="st3" d="M816.8-465.2s1.8 3.5-3 5.2c-12.4 4.6-25.6.5-24.2-4.3.5-1.9 3.6 0 3.4-6.9 0-.9-.3-1.9-.8-3-.8-1.7-1.9-3.6-3.1-5.3-2.1-2.9-4.2-5.3-4.2-5.3s19.7-12.6 34.3 0c-.1-.1-5.5 2.7-2.4 19.6z"/><path id="XMLID_529_" class="st11" d="M841.2-302.5c-7.7 12.6-47.1 18.6-68.5 18-21.5-.5-83.2-29.8-87.4-36-3.9-5.7-13.4-24.7 1.3-36.2 1.2-.9 2.5-1.8 4-2.6 10.1-5.4 77 11.7 77 11.7s4.1-2.6 5.7-2.4c4.7.6 8 4.4 17.4 7.1 6.6 1.9 24.6-5.4 36.2.9 1.3.7 2.4 1.5 3.5 2.5 10.6 10.3 18.5 24.3 10.8 37z"/><defs><path id="SVGID_1_" d="M841.2-302.5c-7.7 12.6-47.1 18.6-68.5 18-21.5-.5-83.2-29.8-87.4-36-3.9-5.7-13.4-24.7 1.3-36.2 1.2-.9 2.5-1.8 4-2.6 10.1-5.4 77 11.7 77 11.7s4.1-2.6 5.7-2.4c4.7.6 8 4.4 17.4 7.1 6.6 1.9 24.6-5.4 36.2.9 1.3.7 2.4 1.5 3.5 2.5 10.6 10.3 18.5 24.3 10.8 37z"/></defs><clipPath id="SVGID_2_"><use xlink:href="#SVGID_1_" style="overflow:visible"/></clipPath><path d="M826.8-342c-11.8-.8-22.3 1.7-29.7 6-8.7 5.2-49.9 25-49.9 25 .1-2.1 2.4-6.4 2.4-6.4-3.9-3.4-14-6.1-14-6.1-7.8-6.7-39-26.7-49.1-33.1 1.2-.9 2.5-1.8 4-2.6 10.1-5.4 77 11.7 77 11.7s4.1-2.6 5.7-2.4c4.7.6 8 4.4 17.4 7.1 6.6 1.8 24.6-5.4 36.2.8z" style="opacity:.3;clip-path:url(#SVGID_2_);fill-opacity:.7;enable-background:new"/><path class="st1" d="M841.2-302.5c-7.7 12.6-47.1 18.6-68.5 18-21.5-.5-83.2-29.8-87.4-36-3.9-5.7-13.4-24.7 1.3-36.2 1.2-.9 2.5-1.8 4-2.6 10.1-5.4 77 11.7 77 11.7s4.1-2.6 5.7-2.4c4.7.6 8 4.4 17.4 7.1 6.6 1.9 24.6-5.4 36.2.9 1.3.7 2.4 1.5 3.5 2.5 10.6 10.3 18.5 24.3 10.8 37z"/><path class="st3" d="m829.1-291.1 1 4.3s-2.6 7.5-14.2 8.7c-11.6 1.2-18.4 3.8-24 4.1-5.6.3-8.8-.1-8.8-.1l-1.1-1.7 47.1-15.3z"/><path id="XMLID_528_" class="st10" d="m761.9-291.6 20.1 15.7s15.5-1.2 28.8-4.3c9.5-2.2 17.8-5.4 18.3-9.7.7-6.6-6.3-8.4-14.7-8.1-1.6 0-3.2.2-4.8.3-13.4 1.4-30.3-5.9-30.3-5.9l-17.4 12z"/><defs><path id="SVGID_3_" d="m761.9-291.6 20.1 15.7s15.5-1.2 28.8-4.3c9.5-2.2 17.8-5.4 18.3-9.7.7-6.6-6.3-8.4-14.7-8.1-1.6 0-3.2.2-4.8.3-13.4 1.4-30.3-5.9-30.3-5.9l-17.4 12z"/></defs><clipPath id="SVGID_4_"><use xlink:href="#SVGID_3_" style="overflow:visible"/></clipPath><path d="M829-290c-3.6 1.4-8.1 3.4-11.2 5.5 0 0-18.6 9.6-47.2-.3l-8.7-6.8 17.3-12s17 7.4 30.3 5.9c1.6-.2 3.2-.3 4.8-.3 8.3-.2 15.3 1.6 14.7 8z" style="opacity:.3;clip-path:url(#SVGID_4_);fill-opacity:.7;enable-background:new"/><path class="st1" d="m761.9-291.6 20.1 15.7s15.5-1.2 28.8-4.3h0c9.5-2.2 17.8-5.4 18.3-9.7.7-6.6-6.3-8.4-14.7-8.1-1.6 0-3.2.2-4.8.3-13.4 1.4-30.3-5.9-30.3-5.9l-17.4 12z"/><path id="XMLID_527_" class="st14" d="M780.6-285.4c-3.6.6.4 8 5.3 5.7 4.9-2.2-1.7-6.3-5.3-5.7z"/><defs><path id="SVGID_5_" d="M780.6-285.4c-3.6.6.4 8 5.3 5.7 4.9-2.2-1.7-6.3-5.3-5.7z"/></defs><clipPath id="SVGID_6_"><use xlink:href="#SVGID_5_" style="overflow:visible"/></clipPath><path d="M787.4-280.8c-2.5-.3-5.1-.7-7.8-1.4-.7-1.4-.5-2.9 1-3.2 3.1-.5 8.2 2.3 6.8 4.6z" style="opacity:.2;clip-path:url(#SVGID_6_);fill-opacity:.7;enable-background:new"/><path class="st1" d="M780.6-285.4c-3.6.6.4 8 5.3 5.7 4.9-2.2-1.7-6.3-5.3-5.7z"/><path id="XMLID_526_" class="st14" d="M810.7-280.2c9.5-2.2 17.8-5.4 18.3-9.7.7-6.6-6.3-8.4-14.7-8.1-.3.4-8.4 8.2-3.6 17.8z"/><defs><path id="SVGID_7_" d="M810.7-280.2c9.5-2.2 17.8-5.4 18.3-9.7.7-6.6-6.3-8.4-14.7-8.1-.3.4-8.4 8.2-3.6 17.8z"/></defs><clipPath id="SVGID_8_"><use xlink:href="#SVGID_7_" style="overflow:visible"/></clipPath><path d="M829-290c-3.6 1.4-8.1 3.4-11.2 5.5 0 0-2.8 1.4-7.8 2.6-3.2-8.8 4-15.7 4.3-16.1 8.3-.2 15.3 1.6 14.7 8z" style="opacity:.3;clip-path:url(#SVGID_8_);fill-opacity:.7;enable-background:new"/><path class="st1" d="M810.7-280.2c9.5-2.2 17.8-5.4 18.3-9.7.7-6.6-6.3-8.4-14.7-8.1-.3.4-8.4 8.2-3.6 17.8z"/><path class="st3" d="M804-288.3h0c.6 0 1.1-.4 1.1-.9.2-4.1 3.4-7.5 3.4-7.5.4-.4.4-1 0-1.4s-1-.4-1.4 0c-.2.2-3.7 3.9-4 8.8 0 .5.3.9.9 1zM800-288.1s.1 0 0 0c.6 0 1.1-.4 1.1-1 .1-4.2 3-7.8 3-7.8.3-.4.3-1-.1-1.4-.4-.3-1-.3-1.4.1-.1.2-3.4 4.2-3.5 9.1 0 .5.4 1 .9 1zM795.2-288.6s.1 0 0 0c.6 0 1-.4 1.1-.9.3-3.5 3.3-7.9 3.3-8 .3-.5.2-1.1-.3-1.4s-1.1-.2-1.4.3c-.1.2-3.3 4.9-3.6 8.9 0 .6.4 1.1.9 1.1zM790.8-289.1h.3c.5-.1.9-.6.8-1.1-.7-4.2 3.2-7.8 3.2-7.9.4-.4.4-1 .1-1.4-.4-.4-1-.4-1.4-.1-.2.2-4.8 4.4-3.9 9.7.1.5.4.8.9.8zM785.9-290.2h.3c.5-.1.9-.7.7-1.2-.9-3.8 2.8-8 2.9-8 .4-.4.3-1-.1-1.4-.4-.4-1-.3-1.4.1-.2.2-4.4 5-3.3 9.8.1.3.5.6.9.7zM682.7-297.6l-1.4 4.2s1.8 7.7 13.2 10.1c11.4 2.4 17.9 5.7 23.4 6.6s8.8.8 8.8.8l1.3-1.6-45.3-20.1z"/><path id="XMLID_525_" class="st10" d="M749.6-291 728-277.5s-15.3-2.9-28.1-7.3c-9.2-3.2-17.1-7.2-17.1-11.5 0-6.6 7.2-7.7 15.5-6.5 1.5.2 3.1.5 4.7.8 13.1 2.8 30.8-2.7 30.8-2.7l15.8 13.7z"/><defs><path id="SVGID_9_" d="M749.6-291 728-277.5s-15.3-2.9-28.1-7.3c-9.2-3.2-17.1-7.2-17.1-11.5 0-6.6 7.2-7.7 15.5-6.5 1.5.2 3.1.5 4.7.8 13.1 2.8 30.8-2.7 30.8-2.7l15.8 13.7z"/></defs><clipPath id="SVGID_10_"><use xlink:href="#SVGID_9_" style="overflow:visible"/></clipPath><path d="m749.6-291-12.7 8c-12.8-3.8-21-12-25.8-18.2 11.3 0 22.6-3.5 22.6-3.5l15.9 13.7z" style="opacity:.3;clip-path:url(#SVGID_10_);fill-opacity:.7;enable-background:new"/><path class="st1" d="M749.6-291 728-277.5s-15.3-2.9-28.1-7.3h0c-9.2-3.2-17.1-7.2-17.1-11.5 0-6.6 7.2-7.7 15.5-6.5 1.5.2 3.1.5 4.7.8 13.1 2.8 30.8-2.7 30.8-2.7l15.8 13.7z"/><path class="st3" d="M699.9-284.7c-9.2-3.2-17.1-7.2-17.1-11.5 0-6.6 7.2-7.7 15.5-6.5.2.3 7.4 8.9 1.6 18zM707.5-292.1c-.1 0-.1 0 0 0-.6 0-1-.5-1-1 .2-4.1-2.6-7.8-2.6-7.9-.3-.4-.3-1.1.2-1.4.4-.3 1.1-.3 1.4.2.1.2 3.3 4.3 3 9.2-.1.4-.5.9-1 .9zM711.4-291.5s-.1 0 0 0c-.6-.1-1-.5-1-1.1.4-4.2-2.2-8.1-2.2-8.1-.3-.5-.2-1.1.3-1.4s1.1-.2 1.4.3c.1.2 2.9 4.5 2.5 9.4-.1.5-.5.9-1 .9zM716.2-291.5h0c-.6 0-1-.5-1-1 .1-3.5-2.4-8.2-2.4-8.3-.3-.5-.1-1.1.4-1.3.5-.3 1.1-.1 1.3.4.1.2 2.7 5.2 2.7 9.2 0 .6-.5 1-1 1zM720.7-291.5h-.3c-.5-.1-.8-.7-.7-1.2 1.1-4.1-2.4-8.1-2.4-8.2-.4-.4-.3-1 .1-1.4.4-.4 1-.3 1.4.1.2.2 4.3 4.8 2.8 10-.1.4-.5.7-.9.7zM725.7-292.1c-.1 0-.2 0-.3-.1-.5-.2-.8-.7-.6-1.3 1.3-3.6-2-8.3-2-8.3-.3-.4-.2-1.1.2-1.4.4-.3 1.1-.2 1.4.2.2.2 3.9 5.5 2.3 10.1-.2.5-.6.8-1 .8zM730.4-286.8c3.5 1-1.2 7.9-5.8 5.2-4.7-2.8 2.2-6.1 5.8-5.2z"/><path class="st2" d="M689.5-323.6c5.3 7.4 21 15.6 36.7 22.4 1.7 2.8 5.1 8 9.8 12.8 9.6 9.9 13.6 4.4 13.6 4.4s6.1-.7 15.1-1.9c.6 1.2 2 3 4.5 2.6 1.2-.2 3.4-1.9 6-4.1 22.7-3.4 53.5-9.1 61.8-15.8"/><path class="st1" d="M828.1-337.7c-3.9-4.3-7.9-4.5-16.1-3.9 0 0-21.5 6.8-36.5 15.9s-36.9 18.6-36.9 18.6-6.7-1.9-11.3 0c0 0-3.3.3-1.1 6M838.1-311.9s.1 6.7-9.3 11.3"/><path class="st1" d="M734.1-339.7s14.9 10.8 17.9 17.9c0 0 5.7 2.4 8.5 4.4"/><path class="st1" d="M753-330.7c1 3.1 1.4 6.5.5 9.6M749.6-337.7c.8 1.2 1.5 2.4 2.1 3.7M770.8-338.7s5 6.7 6.2 12.1M798.5-298.4c1.9-.1 3.7-.3 5.5-.7M751.8-303.2c13.6 2.6 28.5 4.6 42.8 4.9"/><path class="st3" d="M852.6-404.1s-2.7 46.9-5.9 49.6-8.2 3.5-17.6 4.3c-9.5.8-51.3 3.4-51.3 3.4l-4.5-13.5s22.3-2.3 32.1-5.9c9.9-3.6 22.7-6 22.7-6s-1.9-11.8-1.9-16.9V-413"/><path class="st10" d="M844.3-455.4c10.2 6.3 13.2 20.8 9.7 51.8 0 0 3 3.7-1.4 5.5 0 0-16.7-6.2-24.4-1.9-7.8 4.3-5.7-5.9-5.7-5.9s-3.2-28.5 3.9-33.7"/><path class="st9" d="M825.3-444s-9.8 10.2-1.2 36c0 0-1.2 4.7-1.2 6.4 0 1.7 2.4 2.6 2.4 2.6"/><path class="st9" d="M813.9-426.8s.7 12.6 8.5 18.1M816.4-456s-15.2 5.8-27.3-.6c-7.2-3.8-4.2-10-4.2-10"/><path class="st18" d="M707-337.7h82.8c1.9 0 3.7-.2 5.5-.7l16.3-4.3c.5-.1.8-.5.8-1h0c0-.6-.5-1.1-1.1-1.1H703.6c-.6 0-1.1.5-1.1 1.1v1.5c0 2.5 2 4.5 4.5 4.5z"/><path d="M698.8-341.8h83c1.4 0 2.3-1.2 1.9-2.7l-15.4-59.9c-.4-1.5-1.9-2.7-3.3-2.7h-83c-1.4 0-2.3 1.2-1.9 2.7l15.4 59.9c.3 1.5 1.8 2.7 3.3 2.7z" style="fill:#999;stroke:#1a2e35;stroke-linecap:round;stroke-linejoin:round;stroke-miterlimit:10"/><path class="st1" d="M684.9-404.9h-1.6M697.1-404.9H689M779.8-349.4l-13.6-52.9c-.4-1.5-1.9-2.7-3.3-2.7h-64M781-344.8l-.3-1.3"/><path class="st3" d="M723.8-372.9c.1.5.1 1 .3 1.4 1.1 3.6 4.4 5.8 7.5 4.9 3.1-.9 4.8-4.6 3.7-8.2-1.1-3.6-4.4-5.8-7.6-4.9-.4.1-.7.3-1 .4.3 2.8-.9 5.3-2.9 6.4z"/><path class="st10" d="M760.4-485.2c-7.2-.8-11.1-7.6-15.4-8.7-4.3-1.1-7.1-2.3-7.1-2.3s-1.5-5.2-3.7-3.4c-2.2 1.8-5.2 40.6-2.3 39.4 2.9-1.2 2.9 3.4 2.9 3.4l26.7 23.5 22.4-39.6c-.1.1-16.3-11.5-23.5-12.3z"/><path class="st5" d="M543-623.7v-.5h.5"/><path class="st20" d="M546.4-624.2H644"/><path class="st5" d="M645.5-624.2h.5v.5"/><path class="st21" d="M646-620.6v63.1"/><path class="st5" d="M646-556v.5h-.5"/><path class="st20" d="M642.5-555.5H545"/><path class="st5" d="M543.5-555.5h-.5v-.5"/><path class="st21" d="M543-559v-63.1"/><circle class="st2" cx="594.5" cy="-624.2" r="1.7"/><circle class="st2" cx="543" cy="-589.8" r="1.7"/><circle class="st2" cx="594.5" cy="-555.5" r="1.7"/><circle class="st2" cx="646" cy="-589.8" r="1.7"/><path class="st2" d="M644-557.5h3.9v3.9H644zM644-626.1h3.9v3.9H644zM541-557.5h3.9v3.9H541zM541-626.1h3.9v3.9H541z"/><path class="st3" d="M549.8-618.1h89.7v57h-89.7z"/><path class="st2" d="m639.5-577.9-10 9.9-27-26.9-11.3 11.3-18.1-18.1-23.3 23.3v17.3h89.7z"/><circle class="st2" cx="620.9" cy="-601.9" r="6.3"/><path class="st9" d="M765.1-474.7s-6.8 12.8-7.7 32.4M745-465.8s2 10.9 8 18.8M773.2-420.9s10.3 33.8 32.7 43.8"/><path class="st10" d="M800.3-482.2s-1 7.4-8.1 7.9c-.8-1.7-1.9-3.6-3.1-5.3 4.7-1.5 11.2-2.6 11.2-2.6z"/><path class="st3" d="M815.4-481.7s11.9 1.4 16.8-14.5c5-15.9 1.1-27.9-18.6-33.7-10.9-3.2-21.8-.6-25.7 7.6-3.4 7.1-1.8 12.9-2.6 15.3-.9 2.7-8.9 4.9-8.9 6.7 0 1.5 4.4 4.1 4.4 4.1l-1.3 4 1.2.7s-2.3 8.9-1.2 12.1c.8 2.3 20.9 3.2 22.4-2.4"/><path class="st1" d="M788.1-516.5s3.9 1 5 3"/><path class="st10" d="M788.8-507.4c-.2 1.2.1 2.1.6 2.2s1-.8 1.2-2c.2-1.2-.1-2.1-.6-2.2-.5 0-1.1.8-1.2 2z"/><path class="st1" d="M780.9-491.5s6.4 2.5 8.8 1M783.1-508.3c-.5 2.6.1 4.8 1.3 5 1.2.2 2.5-1.7 3-4.2.5-2.6-.1-4.8-1.3-5-1.1-.3-2.5 1.6-3 4.2z"/><path class="st10" d="M832.8-521.4s-.9-6.7-7.5-11.5c-6.5-4.8-14.4-5.9-14.4-5.9s3.8 1.7 5.2 3.8c0 0-9.8-7.4-21.5-2.5-11.6 4.8-10.2 17.4-10.2 17.4l1.7-3.3s-.2 3.9 1.9 5.4c0 0 1.2-3.8 2.5-5.5 0 0 3.1 9.3 11.6 12.4 0 0-.9-1.8-.1-4.6 0 0 4.7 10.2 3.3 15.2l1.5 2.6s5.4-5.5 9.8-.9c2.5 2.6-4.8 12.6-5.9 12.6l4.4 6.5s11.1 1.6 17.5-10.5c6.4-12 4.8-17.2 4.8-17.2s2.1 2.9 2.4 4.6c.2.1 2-12.8-7-18.6z"/><path class="st3" d="M806.6-496.6s3.4-11.5 10.7-7.5c7.3 4.1 2.1 10.2-.5 12.6-2.6 2.4-4.6 6.7-6.3 6.7s-2.1-2.1-2.1-2.1"/><path class="st1" d="m787.4-507.5 20.4 4.2M512.5 397.2c40.5.7 13.4 3.5 23.7 6.1 2.6.6 24 1.6 20.8 5.5-1.6 1.9-8.6 2-10.8 2.3-13.1 1.9-26.3 2.7-39.5 3.1-6.1.2-12.3.3-18.5-.1-2.8-.2-7.6 0-10-1.9-6.6-5.3 4.1-7.9-4.6-10.1-8.8-2.3 24.5-5.2 38.9-4.9zM303.6 434.9s60.6-4.3 74.1-1.5c13.4 2.8 3.2 10.6 10.6 12.3s44.4-3.8 54 3.2c9.6 7-65.8 13.6-87.8 9.8-22-3.8-35.2 7.2-54.2.7-18.9-6.5-57.1-18.2 3.3-24.5zM590 393.1c-23.2.2-52.2 0-54-3-1.9-3 6.6-1.6 8.4-4.2 1.9-2.6-9.4-10.5-8.7-13.8.7-3.3 3.3 1.1 6.4 4.9 3 3.7-4-17.7-1.2-23.1s1.9 7.9 3 12.8c1.2 4.9 3.7 10.2 7.6 11.2"/><path class="st1" d="M560.1 385.4c2.3 2.3 11.7-1.5 15.9-4.4 4.2-2.9-4.5 3-3.2 5.1 1.3 2.1 18.2.3 20.3 0s-6.8 1.6-4.7 3.5c2.1 1.9 15.5 1.4 15.5 1.4"/><path class="st22" d="M349 434.9c10.3-.3 26.4-1.8 28.6 2.2s-6.2 4-12 4.3c-5.7.3-17.3 5.6-18.8 3.4-1.6-2.2-15.3-7.5-22.8-6.7-7.4.8 10.4-2.8 25-3.2zM358.5 454.6c-6.8-2.5 3.3-7.5 11.5-6.6 8.2.9 9.1 3 18.5 3.1 9.4.1 16.4-1.3 15 2.2-1.5 3.7-29.8 6.9-45 1.3zM406.9 448c1.6-1.3 26.9-1.6 29 1.8 2.2 3.4-23.4 8.4-23.7 4.9-.2-3.6-8.3-4.2-5.3-6.7zM326.4 448c9-2.3 18.4.1 24.1-.9 5.6-1.1 5.4.9 1.2 2.7-4.2 1.8-.7 5.8-7 4.9-6.3-.9-21.8 3.8-22.9-1.8-1-5.8-.2-3.7 4.6-4.9z"/><path class="st22" d="M281.5 448c-2.5-4.3-7.3-1.3-4.9-3.6 2.3-2.3 21.5-8 32.5-6.2 11 1.8 16.1 5.6 22.5 4.8 6.3-.9-9.9 2.6-15.5 3.2-5.6.6-2.5 9.7-6.3 8.6-3.7-1.3-25.5-2-28.3-6.8zM483.5 404.6c3.1 2.9-6.9 4.8-2 6 4.9 1.3 15.7 3.1 25 1.5 9.4-1.6 19.7.3 22.2-1.5 2.6-1.8-15.9-.7-17.4-1.9-1.5-1.3 7.6-1.7 1.7-5.7-5.8-4-17.8-2.8-19.6-2.6-1.6.2-14.4-.1-9.9 4.2z"/><path class="st14" d="M517.8 400c4.7-1.3 13.6.3 12.9 2.9-.7 2.6 7.7 2.4 9.5 2.9 1.7.4-19.1 1.1-19.3-1s-3.1-4.8-3.1-4.8zM557.8 390.5c.4 0-10.5-4.7-12.3-8.5-1.8-3.9 3.2.7 3.2.7s-3.5-5-2-5.3 4.6 3.5 6.4 3.7c0 0-1.5 3.3.1 4.5 1.6 1.2 6.1 5.1 10.3 3.5 4.2-1.6 6.3-2.8 6.3-2.8s-1.6 2.5.6 3c2.2.6 11.5.2 11.5.2s-31.4 3-36.2.9c-4.8-2.1 2.2-3.4 1.2-2.9-1 .6 2.5 2.7 10.9 3z"/><path class="st1" d="M532.5 348.5s-3.7-9.9-1.6-10.4c2.2-.5 1.6 5.2 1.6 5.2M527.5 368.6s-10.6-7.1-9.7-9c.9-1.9 4.8 3 4.8 3M530.2 385.6c-.9-.1-16.1 2.3-16.7 0-.7-2.3 8.4-.3 8.4-.3M563 402.9c3.1 1 18.7-2.1 22.3-1.5 3.6.6 11.9.8 11.9.8M540.3 427.5s-15.6-3.3-21.2-1.5c-5.6 1.9-40.1 1.5-40.1 1.5M549.3 427.6c.9.4 8 0 8 0M507.8 449.8c-9.3-2.6-38.3 3.6-43.3 3s-16.9 1.8-16.9 1.8M330.7 414.4c14.6-.2 27.4.1 30.5 1.2 3.1 1.1 16.5 1.4 16.5 1.4M390.8 417h11M365.7 398.6h4.4M377.7 398.6s10-.1 13.2-1.4c3.1-1.3 18.5 2.4 27.1 2.4M344.1 470.6c7.7-.2 20.2-.7 22.7 0s22.5 3.4 27.1 2.1c4.7-1.3 8.6-.5 10.8 0 2.3.5 18 0 18 0M435.9 472.7h15.4"/><path class="st9" d="M253.5 54.4v33.7M253.5 96.2v4.2M253.5 112.2v10.2M287.3 32.8v9.6M287.4 48.7v51.7M287.3 108.6v8.7M327.5 20.3v36.8M327.5 63.6v5M327.5 78.9v35.9M369.3 20.3v17.3M369.3 44.3v4.4M369.3 58.3v16.3M369.3 86.1v7.2M369.3 102.6v17.8M404.8 32.8v55.3M404.8 94.8v5.6M404.8 112.9v19.4M437.5 52.3v12.4M437.5 74.6v62.8M437.5 148.6v6M437.5 175.9v16.4M465.4 89.7v38.6M465.4 138.9v40.9M465.4 196.4v7.9M492.9 108.6v8.7M492.9 129.5v21.4M492.9 165.5V213M523 122.4v61.7M523 193.3v14.1M522 227.8v18.7M554 131.3v30.9M554 173.7v10.4M554 200.4v59M554 273.2v16.5M590 142.4v58M590 214.3V243M590 259.4v7.8M626.7 169v6.9M626.7 188.4v16.9M626.7 218.3v62.3M626.7 292.8v7.3"/><path class="st23" d="M628.8 310.3s8.2 1.6 14.7-1.8c0 0 7 11.5 10.5 12.7 0 0-2.1 13.3 0 21.3 0 0-15 12-16.1 20.1 0 0-12.2-2.4-17.8 0 0 0-4.4-11.9-9.4-14.2 0 0 4.5-13.6 4.3-19.9.1 0 11.7-12.9 13.8-18.2z"/><path d="M628.8 310.3s-.1 5.1-5.4 11c0 0 10.3 6.1 13.7 16.2 0 0 4.6 6.1 0 22.2 0 0 8.2-13.3 15.4-17.7 0 0-1.4-15.4 0-19.8 0 0-8.2-7.7-9.5-11.9.1 0-9.4 2.8-14.2 0z" style="opacity:.3;fill-opacity:.7"/><path class="st1" d="m609.4 326.4 28.1 9.6M630.9 314s6.1 7.5 6.6 22c0 0-1.9 11-15.4 23.6"/><path class="st1" d="M643.6 311.7s-1.1 13-6.1 24.3c0 0-7.6 6.2-22.5 11.3M651.3 324.8s-4.9 8.4-13.8 11.2c0 0 4 11.8 0 21.3"/><path class="st1" d="M637.5 336s5.5 4 12.9 5.1"/><path class="st10" d="M597.2 285c-2.3-5.2-11.7-6.9-13-5.9-1.3 1-5.6 7.1-4.1 11.3 1.5 4.2-2.3 3.7-5.5 7-1.7 1.7-2.1 3.5-2.1 4.8.4-.8 1.3-1.9 3.5-3.3 0 0-4 4.5 0 7.5s20.3-11.5 20.3-11.5 3.3-4.7.9-9.9z"/><path class="st3" d="M615 325.7s1.3 1.1 2 1.7c.7.6.8 2.6 0 3-.8.5-3.5-.7-3.8-1.2-.3-.5-.5-3.5-.5-3.5M559.2 322.2l-3.3.4.4.8-2.2 1.3s-.6 1.8 1 2.6 3.1-.1 5-2.1"/><path class="st10" d="M572.8 360.3c-.9 2.2-13.3 22.4-13.3 22.4s-8.1-6.6-8-9.4c.1-2.8 7.8 3 7.8 3l9.3-21.9 4.2 5.9zM594.7 367.4 607 385s.7 5.4-1.9 9.4h3.1s5.2-6.5 4.9-9.4c-.4-2.9-3.2-2.9-3.9-4.1-.7-1.2-8.9-16.5-8.9-16.5l-5.6 3z"/><defs><path id="XMLID_674_" d="M615 325.7s-.8 1.5-2.5 1l-9.3-10.2-5.6-4.8-.6 3.9-1.4 8.9s2.3 11.7 3.1 15.6c.7 3.8-.5 15.1-.5 15.1l4.7 11.7s-7.1 5.5-16.3 5.1c-6.8-.3-14.6-3.9-21.6-15.4l13.4-27.1-1.5-8.9v-.1l-.8-4.7-15.9 9.3s-1.9-.7-1.2-2.7l12.4-10.7s5.6-9.1 10.1-9.8c0 0 3.9-7.9 11.9-7.5 4 .2 4.9 1.3 4.8 2.4-.1 1.1-1.1 2-1.1 2l10.2 13.6 7.7 13.3z"/></defs><use xlink:href="#XMLID_674_" style="overflow:visible;fill:#692bef"/><clipPath id="XMLID_2_"><use xlink:href="#XMLID_674_" style="overflow:visible"/></clipPath><path class="st25" d="M580.1 354.5c-.7 4.2 9.2 7 11.2 11.9.8 2-1.1 4.4-4.8 5.6-6.8-.3-14.6-3.9-21.6-15.4l13.4-27.1-1.5-8.9c.3 1.5 5.5 25 13.2 32 8 7.2-9.2-2.3-9.9 1.9zM615 325.7s-.8 1.5-2.5 1l-9.3-10.2-5.6-4.8-.6 3.9c.2-2.5.9-5.3 1.4-7.7.6-2.7-.8-6.2-2.1-8.6-.6-1.2.4-2.7 1.8-2.4-.1 1.1-1.1 2-1.1 2l10.2 13.6 7.8 13.2z"/><use xlink:href="#XMLID_674_" style="overflow:visible;fill:none;stroke:#1a2e35;stroke-linecap:round;stroke-linejoin:round;stroke-miterlimit:10"/><path class="st1" d="m576 315.8 8.2-7.3M597.5 311.7s2.5-6 1.4-7.7M597 298.8s1.1 6.3-1.6 7.4c-2.7 1.1-10.1-4.3-10.1-4.3M580.1 315s3.6 8.9 12.9 12.5M578.3 329.5s1 12.2 10.1 21.4"/><path class="st3" d="M442.8 298.8s-6.3 18-5 24.5c1.3 6.5 2.7 14.1 5.8 15.7 3.1 1.6 13.9-20.1 13.9-20.1l-14.7-20.1z"/><path class="st18" d="M454.9 288c-2.3.9-7.8 21.7-7.8 21.7s4.5 7.6 9.4 7.7c4.9.2 8.9-11.5 8.9-11.5"/><path class="st3" d="M437.1 322.8s16.4 13 19.4 15.1c3 2.1 8.9-3.5 8.9-3.5L446 315.8"/><path class="st26" d="M439.7 308.5c3.7 1.4 10.5 9.3 10.5 9.3s-4.5 10.4-7.4 10.2-6.8-5.1-6.8-5.1"/><path class="st10" d="M501 368.5c0-3.2-.1-6.3-.2-9.1-.1-3.1-.3-5.7-.4-7.6-.1-2.1-.2-3.3-.2-3.3l-43.9.3-1 8.8-1.1 9.8s-3.9 14.4-7.1 28.9c-2.3 10.4-4.3 20.9-4.2 26.1 0 .9.1 1.7.3 2.2 1.7 6 8 34.3 11.1 48 7-1.2 13.9-2.6 20.7-4.2l-12-47 11.5-32.1h3.1s1.9 44.3 1.6 45.6c-.3 1.3-1.6 27.8-1.6 27.8l-.1 5.1c7-1.7 13.8-3.5 20.5-5.5l1.2-27.5s-.8-36.7 1.2-50.5c.4-4.7.7-10.4.6-15.8z"/><defs><path id="XMLID_673_" d="M454.9 288c.3-.4 9.1-3.9 18.5-6.5s26.6-.1 28.7 6.5c2.2 6.5 0 70.9 0 70.9s-21.3 8.7-46.7.4c0 0-.9-28.2-2.4-42-1.5-13.7-2.3-23.3 1.9-29.3z"/></defs><use xlink:href="#XMLID_673_" style="overflow:visible;fill:#757575"/><clipPath id="XMLID_3_"><use xlink:href="#XMLID_673_" style="overflow:visible"/></clipPath><path d="M502.1 358.9s-21.3 8.7-46.7.4v-.6c24.3 4.4 40.5-16 39.6-18.5-.9-2.6-15.7 8.4-7.7-3.5 8-11.9 9.1-33.2 9.1-33.2l6.7 2.9c0 21.2-1 52.5-1 52.5z" style="opacity:.3;clip-path:url(#XMLID_3_);fill-opacity:.7"/><use xlink:href="#XMLID_673_" style="overflow:visible;fill:none;stroke:#1a2e35;stroke-linecap:round;stroke-linejoin:round;stroke-miterlimit:10"/><defs><path id="XMLID_671_" d="M411 477.8c-.5-4.4-1.6-14.1-1.8-20.4-.2-8.4 2.1-22.5 2.1-22.5.3-23.5-3-54.1-3-54.1s-2-2.9-1.2-8.7c.4-2.5 1-5.6 1-5.6s30.9-20.7 38.3-9.9c2 2.9 2.6 8.8 2.5 16.2-.1 7.2-.9 15.6-1.9 23.6-1.4 11-3.3 21.1-4.2 26.1-.3 1.7-.5 2.7-.6 3.1-.6 2.7-1.6 8.9-3.4 12.1-1.5 2.5-5.6 28.2-7.2 38.4"/></defs><use xlink:href="#XMLID_671_" style="overflow:visible;fill:#757575"/><clipPath id="XMLID_4_"><use xlink:href="#XMLID_671_" style="overflow:visible"/></clipPath><path d="M448.9 372.7c-.1 7.2-.9 15.6-1.9 23.6-1.4 11-3.3 21.1-4.2 26.1-.3 1.7-.5 2.7-.6 3.1-.6 2.7-1.6 8.9-3.4 12.1-1.5 2.5-5.6 28.2-7.2 38.4l-6.9.6c.2-7.2.6-16.1 1-20.8.6-7.7 3.7-22.4 5.9-29.3s3.6-40.9 3.6-40.9c7.4-5.6 12.4-17.4 12.4-17.4s.5.3 1.3.7v3.8z" style="opacity:.3;clip-path:url(#XMLID_4_);fill-opacity:.7"/><use xlink:href="#XMLID_671_" style="overflow:visible;fill:none;stroke:#1a2e35;stroke-linecap:round;stroke-linejoin:round;stroke-miterlimit:10"/><path class="st3" d="M468.9 277s2.2 3.9.9 8.7c0 0 4.4 4.6 13.2-2.9 0 0-4.2-14.7-2.7-20.7 1.6-5.9-11.4 14.9-11.4 14.9z"/><defs><path id="XMLID_672_" d="M404.8 311.1c-.3-1.8 31.7-6.2 34.9-2.7 10.6 11.8 5.9 28.8 5.9 28.8s-1.5 12.4 3.3 22.2c1.3 2.7.7 12.3.7 12.3-14.6 18.6-43.5 2.5-43.5 2.5-.5-12.4 9.6-29.4 9.6-29.4s-8.7-19.9-10.9-33.7z"/></defs><use xlink:href="#XMLID_672_" style="overflow:visible;fill:#692bef"/><clipPath id="XMLID_5_"><use xlink:href="#XMLID_672_" style="overflow:visible"/></clipPath><path d="M422.7 358.9c7.1 10.1 12.6 7.7 12.1 11.4-.4 2.8-16.9 6.3-28.7 3 .1-12.3 9.6-28.3 9.6-28.3s-3.7-8.5-6.9-18.2c2.6-4.4 4.4-7.3 4.4-7.3s5.8 8.6 7.8 10.1c5.1 3.5 23.3-3.8 23.3-3.8l2.3 2.6c0 5.2-1 8.9-1 8.9s-1.3 11.2 2.6 20.7c-2.7.8-8 1.9-15-.6-9.7-3.6-17.5-8.7-10.5 1.5z" style="opacity:.3;clip-path:url(#XMLID_5_);fill-opacity:.7"/><use xlink:href="#XMLID_672_" style="overflow:visible;fill:none;stroke:#1a2e35;stroke-linecap:round;stroke-linejoin:round;stroke-miterlimit:10"/><path class="st3" d="M430.3 295.8s-2.8 10.3 0 14c0 0-6 3.8-11.9-1.4 0 0 3.7-10.2 0-18-3.7-7.7 11.9 5.4 11.9 5.4z"/><defs><path id="XMLID_668_" d="M394.2 245.2s12.6-19.7 40.1-17.8c0 0 10.8-7.1 28.8-5.1 19.7 2.1 26.8 10.1 26.8 10.1s15.5 4.3 21.3 13.2c0 0-25.2-2.8-35.3 10.6 0 0-44.3-3.9-56.7 6.2 0 0-21-7.3-39.7 1.9 0-.2 2.6-15.8 14.7-19.1z"/></defs><use xlink:href="#XMLID_668_" style="overflow:visible;fill:#692bef"/><clipPath id="XMLID_6_"><use xlink:href="#XMLID_668_" style="overflow:visible"/></clipPath><path d="M394.2 245.2s12.6-19.7 40.1-17.8c0 0 10.8-7.1 28.8-5.1 19.7 2.1 26.8 10.1 26.8 10.1s15.5 4.3 21.3 13.2c0 0-25.2-2.8-35.3 10.6 0 0-44.3-3.9-56.7 6.2 0 0-21-7.3-39.7 1.9 0-.2 2.6-15.8 14.7-19.1z" style="opacity:.3;clip-path:url(#XMLID_6_);fill-opacity:.7"/><use xlink:href="#XMLID_668_" style="overflow:visible;fill:none;stroke:#1a2e35;stroke-linecap:round;stroke-linejoin:round;stroke-miterlimit:10"/><path class="st3" d="M480.3 250.6c-4.4-8.1-23.4-4.7-23.8 3.1-.5 11.3 4.5 27.3 10.7 27.8 7.7.7 21.7-14.8 13.1-30.9z"/><path class="st10" d="M420.6 268.4s6.3-3.1 12-.9c5.6 2.2 5.4 12.3 6.3 15.2.8 2.9 1.9 9.2.9 12.4-1 3.2-17.1 5.5-23.2 1.7-6.1-3.7-9.6-23.8 4-28.4z"/><path class="st3" d="M412.9 276.8c1.6-8.2 17.7-10.1 20.1-3.6 3.5 9.6 4.6 24.6-.6 26.7-6.4 2.6-22.6-7-19.5-23.1z"/><path class="st10" d="M417.9 267.4s16.9-4 17 1.7c.2 15.9-12.9 23.8-12.9 23.8l1.6 9s-9.4 3.8-14.4 0-9.4-33.2 8.7-34.5z"/><path class="st3" d="M433 282.4s1.8 2.8 3.5 3.3-1.4 3.4-1.4 3.4"/><path class="st10" d="M471.2 244s-20.4 2.3-19.3 11.1c1.1 8.7 6.1 8.7 6.1 8.7l-.6-2 5.8 2 .9-1.7 8 1.7V262l3.6 1.8 1.5 3.8s.6-5.6 2-5.5c1.4.2 1.9 5.9 0 8.6 0 0 4.1 1.2 4.4-12.4.2-13.5-6.5-15.4-12.4-14.3z"/><path style="fill:none;stroke:#1a2e35;stroke-width:3;stroke-linecap:round;stroke-linejoin:round;stroke-miterlimit:10" d="M437.8 218.1 449.4 333"/><path class="st10" d="m439 212.3-1.5-2.7-1 .1-.8 3.3z"/><path class="st2" d="M379.5 264.1s5.7-36.3 58.2-51.8c0 0 45.4-1.8 73.4 33.2 0 0-29.6-18.7-46-6.2 0 0-28-9.3-47.4 8 .1 0-26.4-2.4-38.2 16.8z"/><path class="st1" d="M465 236.1s-6.2-20.5-27.3-23.7c0 0-15.9 2.9-19.3 29.8"/><path class="st3" d="M509.8 301.9s9.7 15.6 12.2 21.3c0 0-.9 9.6-6.1 20.9-5.1 11.3-16.4 26.6-16.4 26.6l-5.9-5.3s4.7-7.2 7.5-15.3c2.8-8.1 10-23.1 10-23.1l-13.2-18"/><path class="st18" d="M498.9 284.4c5.6 3.2 14.6 20.8 14.6 20.8s-10.6 11.2-12.5 10.5c-1.9-.7-9.3-10.5-9.3-10.5"/><path class="st3" d="m412.5 321.9 7.3 15.3 23.4-15.5c3.2-8.1 7.2-8 8.1-7.6.8.4 2.1 3.8 2.1 7.3-.1 3.4-6.7 6.4-6.7 6.4s-21.6 21.5-26.8 20.7c-5.2-.9-14.2-16-15-20.1"/><path class="st2" d="M404.8 311.1c-6.7 5.5 0 21.3 0 21.3s5.5-4.5 10.5-7.3c0 0-2.8-8.9-4-9.3"/><path class="st3" d="M439.4 293.3s7.4-3.5 8.5-3c1.1.5 2.9 11.9 1.5 12.5-1.4.6-4.2 4.6-5.8 2.9-1.6-1.9-6.5-11-4.2-12.4zM461.2 267.4s-1.2 6-.6 7.1c.5 1.1 3.9-1.4 3.9-1.4"/><path class="st1" d="M466.4 276.1s2.4-1.1 3.3-2.6M430.3 291.8s2 1.3 3.8 0M424.4 476.8c-.3-10.9 3.5-38.5 3.5-38.5s2.2-7.6 3.6-11.7 3.6-40.9 3.6-40.9 4.7 1.3 6.4 0M429 382.7c1.3-.2 6.2.9 6.2.9s6.1-1.1 7.7-3.5M433.3 385.6s-6.9 4.6-8.9 4.3M415.2 446s2.8 11.7 5.1 17.2M438.7 437.5s-4.2 2-5.8-1.5M421.1 432.4c.5 0 1.6 3.6 3.3 3.6"/><g class="st32"><path class="st9" d="M464.5 380.8s13.2 3.2 19.1 9.1M460.4 423.4s-6.6 9.4-8.6 7.8M491.7 440.1c-1 3.1-5.7 17.1-8.7 19.3M471.9 366.4s1.2 7.9 0 10.7c-1.2 2.8 0 4.8 0 4.8"/></g><path class="st1" d="M483.5 325s-11 17.2-23.1 20.3M466.4 288s7.9 5.1 15.2-.9M493.6 301.9c.2-1.6 4.6-11.9 8.5-13.9M445.3 359.6s-13.5 2.1-22.6-4.4"/><defs><path id="XMLID_667_" d="M160.8 257s6.9-53.8 66.4-77c0 0 15.7-25.6 55.2-39.3 43.5-15.1 66.3-5.4 66.3-5.4s36.8-6.4 57.6 6.5c0 0-55.5 19.1-63.5 57 0 0-96.7 35.7-112.8 69.1 0 0-51.3 5.5-81.3 43.2.1.1-9.9-35.4 12.1-54.1z"/></defs><use xlink:href="#XMLID_667_" style="overflow:visible;fill:#bfbfbf"/><clipPath id="XMLID_7_"><use xlink:href="#XMLID_667_" style="overflow:visible"/></clipPath><path d="M160.8 257s6.9-53.8 66.4-77c0 0 15.7-25.6 55.2-39.3 43.5-15.1 66.3-5.4 66.3-5.4s36.8-6.4 57.6 6.5c0 0-55.5 19.1-63.5 57 0 0-96.7 35.7-112.8 69.1 0 0-51.3 5.5-81.3 43.2.1.1-9.9-35.4 12.1-54.1z" style="opacity:.3;clip-path:url(#XMLID_7_);fill-opacity:.7"/><use xlink:href="#XMLID_667_" style="overflow:visible;fill:none;stroke:#1a2e35;stroke-linecap:round;stroke-linejoin:round;stroke-miterlimit:10"/><defs><path id="XMLID_669_" d="M363.5 365.9s-1.3 7.6-3.3 17.2c-1.7 8.1-4 17.7-6.6 25.3-2 6-4.2 10.8-6.4 12.5-8.1 6.5-28-.1-32.1-10.5-4.1-10.4-12.2-88.1-12.2-88.1l17.2-14.4s7.9 10.6 12.4 18.1c3 5.1 4.9 15.3 5.9 21.3.4 2.8.6 4.6.6 4.6s3.6-21.5 5.2-23.6c0 0 4.5-7.4 10.7-4.2 6.2 3.3 12.9 20 13.2 26.2.3 6.2-4.6 15.6-4.6 15.6z"/></defs><use xlink:href="#XMLID_669_" style="overflow:visible;fill:#692bef"/><clipPath id="XMLID_8_"><use xlink:href="#XMLID_669_" style="overflow:visible"/></clipPath><path class="st34" d="M353.6 408.3c-2 6-4.2 10.8-6.4 12.5-8.1 6.5-28-.1-32.1-10.5-4.1-10.4-12.2-88.1-12.2-88.1l17.2-14.4s7.9 10.6 12.4 18.1c3 5.1 4.9 15.3 5.9 21.3-1.1 16.1-3 51.3 2.1 58.6 3.7 5.5 8.5 6.3 13.1 2.5zM363.5 365.9s-1.3 7.6-3.3 17.2c-1.4.7-3.2 1.1-5.6.1-5.7-2.4-7.7-31.3-7.7-31.3s5.9 19.8 16.6 14z"/><use xlink:href="#XMLID_669_" style="overflow:visible;fill:none;stroke:#1a2e35;stroke-linecap:round;stroke-linejoin:round;stroke-miterlimit:10"/><path class="st10" d="M344.2 334.4s.2 13.2 9.1 18.5c8.9 5.4 12.2 0 12.4-2.8 0 0 0-12.6-9-20.8-5.2-4.6-13.2-.1-12.5 5.1z"/><path class="st3" d="M345.7 336.5c-.2-1-6.8-7.2-5.7-12.6 1.1-5.4.5-12.5 3.4-14.1 2.9-1.6 5.1 0 5.1 0s2.4-4.9 4.9-3c2.5 1.9 4 2.2 5.8 3 1.8.7 2.9 2 3.8 4.2.9 2.2 2.7 1.5 4 4.4 1.3 2.9 2.2 5.3 2.9 8.5.7 3.3 0 7.8 0 7.8s-.2 10.2-7.6 11.8-14.9-2.4-16.6-10z"/><path class="st18" d="m281.6 205.8 95.8 142.4s.9 3-1.1 5.3-3 .7-3 .7l-95.9-143 4.2-5.4z"/><path class="st3" d="M364.6 325.6c-2.2 2-2.8 5.7-4.6 5.1-1.8-.5-1.2 2.7-3 .9-1.8-1.8-2.9-1.8-3.6-3.4-.7-1.6-1-2.2-3.2-4.2-1.3-1.2-4.9-1.8-4.4-5.4.4-3.7 1.2-8 4.9-11.4"/><path class="st3" d="M350.9 329.4c.3-2.9-2.4-12-2.4-12 6.2 2.1 4.7-4.5 4.7-4.5l-4.7-3.1s-8.6-6.9-8 10.4"/><path class="st10" d="M239.7 192.1c-22.1 15.3-18.4 69.6-17 88.1 1.4 18.5-8.2 53.4-8.2 53.4s84.2 19.3 102.7 8.4-3.9-63.9-3.1-88.2c.8-24.3 6.5-59.3-21.4-63.8-27.9-4.6-53 2.1-53 2.1z"/><path class="st1" d="M363.5 365.9s-5.7 2.7-8.5 2.3c-2.8-.5-9.3-9.8-9.3-9.8M350.5 371s6.4 4.3 12.6-2.8"/><path class="st10" d="m222.2 143.7-5.8-4.2-1.9 1.2 1.5 7.6z"/><path id="XMLID_670_" d="m328.7 393.2 1.6 81.1c-4.9-.8-9.6-1.8-14.2-2.9-55.9-13.2-85.5-45-87.5-47 .5-9.7.8-18.8.3-27-1.4-21.6-14.3-87.3-14.3-87.3s5.3-9.9 19.5-17.2c5.1-2.7 11.5-5 19.1-6.4 2.7-.5 5.5-.8 8.5-1.1 3.3-.2 6.6 0 9.9.7 31.7 6.3 61.6 50.8 63.7 62.6 2.3 13.1-6.6 44.5-6.6 44.5z" style="fill:#757575"/><path class="st36" d="m328.7 393.2 1.6 81.1c-4.9-.8-9.6-1.8-14.2-2.9V441c-14.5 1.4-39.6-3.7-39.6-3.7l-3.3-21.5s19.1-24.8 26.6-30.2c7.5-5.4 15.9-17.1 16.3-23.8.4-6.7-20.6-48.1-22.8-48.9-14.1-5.4-47.6-6.6-47.6-6.6L234 293c5.1-2.7 11.5-5 19.1-6.4l18.4-.4c31.7 6.3 61.6 50.8 63.7 62.6 2.4 13-6.5 44.4-6.5 44.4z"/><path class="st1" d="M228.5 424.5c.5-9.7.8-18.8.3-27-1.4-21.6-14.3-87.3-14.3-87.3s11.9-22 47.1-24.6c35.2-2.6 71.3 50.3 73.6 63.3 2.3 13-6.6 44.4-6.6 44.4l1.6 81.1"/><path class="st2" d="M291.2 294s29.5 36.3 30.6 65.6c1.1 29.3 3.1 111 3.1 111l9.7-3-2.3-37.5-1.4-3.9-.9-31.2s6.9-37.7 5.3-46.2c-1.6-8.5-7.5-27.3-7.5-27.3s1.1-13.7-36.6-27.5z"/><path class="st2" d="M238.2 288c7.4-4.8 56.8-10.4 83.6 24.9l-5.9 3.5 16.6 17.1s-1 34.2-9.7 55.5c0 0-7.7-75.7-26.2-87.8-18.5-12.2-47.6-12.8-56-8.1-8.5 4.6-2.4-5.1-2.4-5.1z"/><path class="st18" d="m246.4 297.4 1.1-11.5s19.2-9.4 42.8 2l4.7 16.4s-16 8.3-34.7 4.6"/><path class="st11" d="M283 401c-.1 3-.2 6.1-.3 9.1-.8 18.7-2.2 37-3.3 49.3-16-7-30.9-16-44.1-27.5-2.3-2-4.6-4.1-6.8-6.2-2.9-2.9-5.8-5.8-8.5-8.9.1-3.4 0-6.1-.1-7.7-.1-.6-.2-1.3-.3-2.1-2.4-10.9-14.6-40.7-16.5-65.7-.2-2.4-.3-4.8-.2-7.1.1-8.7 8.2-29.3 8.2-29.3s3.5-4.6 25.1-14.8c0 0 36.2 29.3 44.2 56.1 3 10.5 3.3 32.2 2.6 54.8z"/><path class="st36" d="M283 401c-.1 3-.2 6.1-.3 9.1l-3.4-4.3s-6.7 16.1-22.3 20.8c-8.5 2.6-24.5-8.7-37.3-19.6-2.4-10.9-14.6-40.7-16.5-65.7 10-4.2 25-10 28.4-9.6 4.8.6 22.4 22.9 25.1 26.3l-16.4-22.4 3.5-9.9-14.7-7.4 7.2-5.4 19.9 1.2 10.9 28.9 15.9 58z"/><path class="st1" d="M220 416.8c.1-3.4 0-6.1-.1-7.7-.9-9.4-17.4-47-17.1-74.8.1-8.7 8.2-29.3 8.2-29.3s3.5-4.6 25.1-14.8c0 0 36.2 29.3 44.2 56.1 6.1 20.4 1.6 83.9-.9 113.1"/><path class="st3" d="M246.6 249.4s10.9 23.1 4.7 39.3c0 0 26.6 10.3 34.3 2.4 0 0-.9-15 4.8-22.3"/><path class="st3" d="M239.8 255.3c-11.3-24.2-17.5-64.3 25.4-68.8 32.2-3.4 41.5 22.1 41.5 38.4 0 6.3 1.8 17.7 2 26.8.4 13.9-7.6 25.3-15 27.8-6.8 2.3-29.4-2.5-33.7-10.8"/><path class="st3" d="M294.3 239.2s1.4 3.8 5.5 7.9c1.9 1.9-4.1 6.7-4.1 6.7"/><path class="st1" d="M297.3 223.4s4.7 1.5 9.4 0M283.4 223.4s-8.3 3.1-15.2 3.1"/><ellipse class="st10" cx="279.3" cy="236.3" rx="1.4" ry="2.5"/><ellipse class="st10" cx="300.5" cy="235.3" rx="1.4" ry="2.5"/><path class="st10" d="M279.3 182.8c-15.1-1.3-26.4 3.4-26.4 3.4-27.2-.2-30.3 40-22.9 60.3 7.4 20.2 18.3 14.1 18.3 14.1s-8.3-19.3-1.9-21.7c6.4-2.4 7.4 6 7.4 6 1-7.6 9.1-20.2 9.1-20.2 9.5-9.3 8.8-20 8.8-20 2.9 2.9 4.1 13.6 4.1 13.6.4-.1.8-.1 1.1-.2 1.2-3.1 2.6-8.7.9-14.3 0 0 3.5 6.2 2.5 13.7 4.6-.6 9-.8 12.9-.8.9-5.2 1.8-13.9-.8-17.5 0 0 4.9 7.3 4.1 17.6 1 .1 2 .1 2.9.2.4-3.1.9-8.3-.4-10.9 0 0 3.2 3.2 3 11.1 4.1.5 6.6 1 6.6 1 3.3-22.7-14.3-34.1-29.3-35.4z"/><path class="st3" d="M251.6 239.7s-5-4.5-8.5-3.4c-3.6 1.1-3.8 12.3-1.2 15.9 2.6 3.6 3.6 5 6.4 8.3 2.9 3.3 4.5 2.1 4.8 0"/><g class="st32"><path class="st9" d="M251.5 222.4c-3.2 4.2-7.1 7.7-11.4 10.8M257 192.3c3.6 8.3 1.7 18.3-2.7 25.9M261.2 187.4s10.3 7.3 6 22.2M280 190.5c6.1 5.3 7.4 13.2 5.6 20.8M270.1 185.3c2.1.5 4.2 1.4 6.1 2.5M303.8 201.9c1.5 3.5 2.3 7.3 2.3 11.1M284.9 186.1c6.7 2.1 12.9 6.1 16.8 12M226 255.2c0 3.6.4 7.3 1.5 10.8M249.5 196.3c-1.6 6.2-4.3 12.2-7.1 17.9-6 12.3-15 22.8-16.2 36.9"/></g><path class="st2" d="m313 273.4-4.1-9.5-7.1-1.9s-1.9.7-1.3 2.1l6.7 1.8 3.6 8.4"/><path class="st23" d="m344.8 276.7-3 2.6.3 4.4 2 25.2.7 8.3s-14 7.4-28.8 5.2l-8.6-36.4-3.5-.7-2.7-7.2s14.9-10.5 43.6-8.9v7.5z"/><path class="st1" d="M307.5 285.9s12.8-8.3 32.5-6.4"/><path class="st1" d="M344.8 276.7s-20.4-3.8-36.4 6M316.1 322.3s11.5-5.9 25.6-5.9M302.3 266.6s-2.1 2.3-5.1.7M299.7 259.4s1.4-2.6 2-1.3c0 0 1.9-.8 1.8 1.3"/><path class="st3" d="M344.2 308.8c-6.3-.6-16.8-7.9-13.8-18.1 2.4-8.6 8.1-8.3 11.9-7l1.9 25.1z"/><path class="st2" d="M247.2 285.4s-7.6 1.3-10.9 3.7c-9.6 6.9-7.4 29.2-7.4 29.2l22.6 1.1-7.5 13s27.5 25.5 38.5 77c0 0 2.6-39.3-2-65.3-3.5-19.4-23.8-37.3-34.3-47.6-3.1-3-3-7-3-7"/><path class="st3" d="m303.2 298.6 5.2-8.4 1.3 5.6s5.8-3.6 8.5-4c2.7-.5 11.3-2.4 14-1.9 2.7.5 7.9 1.7 7.9 1.7s2 1.8-1.9 3.4c0 0 1.7 0 3.5 1.1s-3.5 4.3-3.5 4.3 1.6.5 1.6 2-4.4 4.4-8.1 7.1c0 0 2 .8 2 2.1s-12.8 8-12.8 8-9.6 7-10.4 6.2c-.6-.7-13-15.2-7.3-27.2z"/><path class="st1" d="M338.4 294.9h-8.5l-6.9 2M338.4 300.4l-8.6 2.2-6.1 2.4M331.9 309.5l-8.9 3.4M339 351.8s-6.2 26.2-4.6 37.2-1.6 10.5-1.9 8.4"/><path class="st23" d="M148.8 311.2s-24-81.7 70.8-166.3c0 0 93.4-48.7 186.8-3.1 0 0-80.6-9.9-102.6 32.5 0 0-68 8.2-91.3 63.7 0 .1-57.9 21.2-63.7 73.2z"/><path class="st1" d="M300.4 167.6s-33.4-36.8-80.8-22.7c0 0-30.5 21.8-10.9 81.5M359.7 218.5c-4.2-1.7-7 .8-8.3 2.4-1-1.8-3.4-4.6-7.8-3.7-4.8 1.1-6.9 6.8-3.4 12.6 2.5 4.1 6.8 7.1 9 8.5.3.2.5.3.7.4.2-.1.5-.2.8-.3 2.4-1 7.2-3.3 10.3-6.9 4.4-5.1 3.2-11.1-1.3-13z"/><path class="st1" d="m351.4 220.9-1.8 2.5 3.7 1.5-3.7 2.3 1.8 1.6-1.8 1 1.5 4"/><path class="st5" d="M349.6 242.1v1.5"/><path d="M349.4 245.7c-.5 3.5-2.1 8.3-7.7 8.1-8.7-.3-7.4-6.8-3.3-4.3 3.6 2.2-1.1 10.2-7 11.2" style="fill:none;stroke:#1a2e35;stroke-linecap:round;stroke-linejoin:round;stroke-dasharray:3.0982,2.0655"/><path class="st5" d="M330.4 260.8c-.5 0-1 0-1.5-.1"/><path class="st2" d="M211 305c-13.9 11.7-10.5 46.9-4.2 58.3 16.2 29.6 41.2 54.5 50.3 55.2 9.1.7 29.3-23 33.7-33.1 4.4-10.1 21.8-47.3 21.8-47.3s8-1.2 9-1.2-3.9-24.2-6.2-29.6c-2.3-5.4-11.9-8.8-11.9-8.8l-7.3 9.8-4.2.7-33.6 55.8c-17.6-15.3-32.3-50.7-44-54.5"/><path class="st1" d="M296.3 308.2c6.9-.4 10.2 11.8 10.2 11.8M312.7 338l-1.6-7.5s1.7.2 2.3 3.8"/><path class="st2" d="M258.5 364.7s-8.2 10.9-6.1 15.8c2.1 4.9-2.2 5.8-3.7 4-1.5-1.9-4.2-8.3 1.6-12.3M256.9 363.3s-5.6-.6-11.3 4.9"/><path class="st26" d="M224.4 312.9s3.9 5 4.5 12.1"/></svg>